# File created by Blade
# Date/Time:  Mon Sep 22 15:39:46 2014
# Frame Rate: 120.000 fps
#------------------------------------------------------
:FULLY-SPECIFIED
:DEGREES
3205
root 0.717469 37.008357 2.866116 3.051269 -18.312847 -0.387960
RightUpLeg 4.852484 5.426757 -0.026182
RightLeg -6.154691 -0.000000 0.000000
RightFoot -10.404147 -10.955483 14.928029
RightToeBase 15.085765 -0.000000 -0.000000
LeftUpLeg 7.987828 13.933350 5.189706
LeftLeg -3.578192 -0.000000 0.000000
LeftFoot -11.585768 16.459281 -20.607516
LeftToeBase 7.496842 -0.000000 -0.000000
Spine 2.461099 -26.921505 -8.272557
RightShoulder -9.163789 -5.206957 -25.640381
RightArm -252.817924 93.768811 -208.901758
RightForeArm 90.133244 -0.000000 144.858205
RightHand 15.347884 -0.000000 44.713094
RightHandThumb1 -24.326973 -0.000000 -32.862282
LeftShoulder -19.768682 40.525644 -7.169383
LeftArm 29.072731 0.988122 -71.219978
LeftForeArm 21.200755 -0.000000 35.764142
LeftHand -16.988654 -0.000000 -8.140298
LeftHandThumb1 -26.253704 0.000000 33.147579
Head 3.265849 -37.939218 5.109928
3206
root 0.716687 37.007992 2.868075 3.016936 -18.261358 -0.405764
RightUpLeg 4.908647 5.407930 0.000904
RightLeg -6.171108 -0.000000 0.000000
RightFoot -10.393904 -10.987912 14.951515
RightToeBase 15.008603 -0.000000 -0.000000
LeftUpLeg 8.033596 13.827906 5.214096
LeftLeg -3.605080 -0.000000 0.000000
LeftFoot -11.644052 16.507534 -20.692539
LeftToeBase 7.629054 -0.000000 -0.000000
Spine 2.537316 -26.923491 -8.286661
RightShoulder -9.152613 -5.277350 -25.632516
RightArm -255.508431 93.586957 -211.435870
RightForeArm 90.214923 -0.000000 144.720322
RightHand 15.327927 -0.000000 44.652558
RightHandThumb1 -24.326973 -0.000000 -32.862282
LeftShoulder -19.810316 40.560344 -7.174182
LeftArm 29.119307 1.000358 -71.234707
LeftForeArm 21.038555 -0.000000 35.803288
LeftHand -16.997827 -0.000000 -7.972880
LeftHandThumb1 -26.253704 0.000000 33.147579
Head 3.227452 -38.020364 5.235315
3207
root 0.716020 37.007770 2.870930 2.974458 -18.200322 -0.416243
RightUpLeg 4.973289 5.352353 0.018028
RightLeg -6.185353 -0.000000 0.000000
RightFoot -10.384706 -10.984164 14.958593
RightToeBase 15.015968 -0.000000 -0.000000
LeftUpLeg 8.092546 13.692882 5.229650
LeftLeg -3.643951 -0.000000 0.000000
LeftFoot -11.657118 16.568051 -20.719286
LeftToeBase 7.609102 -0.000000 -0.000000
Spine 2.608966 -26.921528 -8.315551
RightShoulder -9.120236 -5.310413 -25.637095
RightArm -257.569596 93.504988 -213.345983
RightForeArm 90.283546 -0.000000 144.616720
RightHand 15.306628 -0.000000 44.618101
RightHandThumb1 -24.326973 -0.000000 -32.862282
LeftShoulder -19.796262 40.592211 -7.121282
LeftArm 29.121276 1.037634 -71.266722
LeftForeArm 20.821198 -0.000000 35.857111
LeftHand -17.060945 -0.000000 -7.733128
LeftHandThumb1 -26.253704 0.000000 33.147579
Head 3.235405 -38.121104 5.346022
3208
root 0.715728 37.008342 2.872151 2.952944 -18.150612 -0.422944
RightUpLeg 5.002842 5.300815 0.029002
RightLeg -6.183148 -0.000000 0.000000
RightFoot -10.401662 -10.965716 14.977499
RightToeBase 15.139763 -0.000000 -0.000000
LeftUpLeg 8.122900 13.581844 5.235116
LeftLeg -3.670178 -0.000000 0.000000
LeftFoot -11.611803 16.620136 -20.651410
LeftToeBase 7.494149 -0.000000 -0.000000
Spine 2.651387 -26.904909 -8.343333
RightShoulder -9.089394 -5.326416 -25.631958
RightArm -258.444344 93.484838 -214.100110
RightForeArm 90.341663 -0.000000 144.551709
RightHand 15.265462 -0.000000 44.622732
RightHandThumb1 -24.326973 -0.000000 -32.862282
LeftShoulder -19.761213 40.610140 -7.050558
LeftArm 29.092962 1.053240 -71.303209
LeftForeArm 20.697197 -0.000000 35.927606
LeftHand -17.081564 -0.000000 -7.758487
LeftHandThumb1 -26.253704 0.000000 33.147579
Head 3.268458 -38.234391 5.457450
3209
root 0.714224 37.009134 2.873411 2.935180 -18.109776 -0.433198
RightUpLeg 5.024743 5.234654 0.043648
RightLeg -6.173171 -0.000000 0.000000
RightFoot -10.387375 -10.948860 14.957983
RightToeBase 15.079719 -0.000000 -0.000000
LeftUpLeg 8.134579 13.572834 5.257276
LeftLeg -3.664011 -0.000000 0.000000
LeftFoot -11.642478 16.595237 -20.714632
LeftToeBase 7.634748 -0.000000 -0.000000
Spine 2.688814 -26.869148 -8.368468
RightShoulder -9.066556 -5.304072 -25.622527
RightArm -258.151035 93.550177 -213.723052
RightForeArm 90.381700 -0.000000 144.545704
RightHand 15.198346 -0.000000 44.640288
RightHandThumb1 -24.326973 -0.000000 -32.862282
LeftShoulder -19.726463 40.611171 -6.971420
LeftArm 29.067363 1.077202 -71.331007
LeftForeArm 20.710282 -0.000000 35.972520
LeftHand -17.058574 -0.000000 -7.895279
LeftHandThumb1 -26.253704 0.000000 33.147579
Head 3.287293 -38.350183 5.582303
3210
root 0.712217 37.010273 2.872085 2.942291 -18.060982 -0.439807
RightUpLeg 5.026381 5.251623 0.067199
RightLeg -6.202546 -0.000000 0.000000
RightFoot -10.352141 -11.077949 14.897298
RightToeBase 15.079575 -0.000000 -0.000000
LeftUpLeg 8.114646 13.523971 5.266217
LeftLeg -3.656691 -0.000000 0.000000
LeftFoot -11.641678 16.587433 -20.730695
LeftToeBase 7.625031 -0.000000 -0.000000
Spine 2.697881 -26.834925 -8.392838
RightShoulder -9.068923 -5.324274 -25.585120
RightArm -257.078546 93.603628 -212.615978
RightForeArm 90.370113 -0.000000 144.573150
RightHand 15.077909 -0.000000 44.706400
RightHandThumb1 -24.326973 -0.000000 -32.862282
LeftShoulder -19.688800 40.604272 -6.873908
LeftArm 29.049081 1.183439 -71.325351
LeftForeArm 20.512041 -0.000000 35.990509
LeftHand -17.099398 0.000000 -7.697448
LeftHandThumb1 -26.253704 0.000000 33.147579
Head 3.297299 -38.475938 5.730203
